<?xml version="1.0" encoding="utf-8"?>
<!DOCTYPE svg PUBLIC "-//W3C//DTD SVG 1.1//EN" "http://www.w3.org/Graphics/SVG/1.1/DTD/svg11.dtd" [
	<!ENTITY ns_svg "http://www.w3.org/2000/svg">
	<!ENTITY ns_xlink "http://www.w3.org/1999/xlink">
]>
<svg  version="1.1" xmlns="&ns_svg;" xmlns:xlink="&ns_xlink;" width="128" height="128" viewBox="0 0 128 128"
	 overflow="visible" enable-background="new 0 0 128 128" xml:space="preserve">
	<path opacity="0.2" fill="#3D3D3D" d="M85.939,2.31c-22.043,0-39.972,17.929-39.972,39.966c0,22.038,17.929,39.966,39.972,39.966
		c22.036,0,39.965-17.928,39.965-39.966C125.904,20.239,107.975,2.31,85.939,2.31z M85.939,47.829c-3.062,0-5.553-2.49-5.553-5.553
		c0-3.062,2.491-5.552,5.553-5.552c3.06,0,5.551,2.491,5.551,5.552C91.49,45.339,88.999,47.829,85.939,47.829z"/>
	<path opacity="0.4" fill="#3D3D3D" d="M85.87,1C63.826,1,45.898,18.928,45.898,40.966c0,22.037,17.928,39.966,39.971,39.966
		c22.037,0,39.965-17.929,39.965-39.966C125.834,18.928,107.907,1,85.87,1z M85.904,45.999c-2.755,0-5-2.242-5-4.999
		s2.245-4.999,5-4.999c2.757,0,5,2.242,5,4.999S88.661,45.999,85.904,45.999z"/>
	<linearGradient id="XMLID_25_" gradientUnits="userSpaceOnUse" x1="52.5313" y1="48.6787" x2="102.4318" y2="65.5325">
		<stop  offset="0" style="stop-color:#CED1E3"/>
		<stop  offset="0.1854" style="stop-color:#E7E6F0"/>
		<stop  offset="0.618" style="stop-color:#E7E6F0"/>
		<stop  offset="0.8933" style="stop-color:#DBC0C4"/>
		<stop  offset="1" style="stop-color:#D8BDB6"/>
	</linearGradient>
	<path fill="url(#XMLID_25_)" d="M91.504,43.37c-0.923,2.179-3.083,3.709-5.601,3.709c-3.358,0-6.078-2.721-6.078-6.078
		c0-0.128,0.012-0.253,0.02-0.379l-31.646-7.457c-0.523,2.53-0.801,5.15-0.801,7.836c0,21.262,17.242,38.5,38.505,38.5
		c17.866,0,32.886-12.173,37.229-28.676L91.504,43.37z"/>
	<linearGradient id="XMLID_26_" gradientUnits="userSpaceOnUse" x1="56.8564" y1="14.6992" x2="121.2363" y2="30.7408">
		<stop  offset="0" style="stop-color:#BBDBD8"/>
		<stop  offset="0.3708" style="stop-color:#DFECDB"/>
		<stop  offset="0.6798" style="stop-color:#DFECDB"/>
		<stop  offset="1" style="stop-color:#E2E3C9"/>
	</linearGradient>
	<path fill="url(#XMLID_26_)" d="M85.904,2.5c-18.577,0-34.086,13.16-37.705,30.665l31.646,7.457c0.196-3.18,2.828-5.7,6.059-5.7
		c3.358,0,6.078,2.722,6.078,6.08c0,0.84-0.171,1.641-0.478,2.369l31.629,7.455c0.827-3.136,1.271-6.428,1.271-9.824
		C124.404,19.738,107.166,2.5,85.904,2.5z"/>
	<path fill="#DCE8EB" d="M49.619,28.105l31.042,9.828c0.192-0.329,0.416-0.638,0.665-0.924l-25.951-19.46
		C52.938,20.716,50.982,24.269,49.619,28.105z"/>
	<path fill="#E6E9F0" d="M79.826,41c0-0.404,0.041-0.798,0.116-1.18l-32.147-4.312c-0.257,1.794-0.396,3.626-0.396,5.492
		c0,2.006,0.153,3.976,0.451,5.899l31.98-5.795C79.83,41.069,79.826,41.035,79.826,41z"/>
	<path fill="#BACBD8" d="M47.795,35.509l32.147,4.312c0.134-0.677,0.381-1.311,0.719-1.887l-31.042-9.828
		C48.777,30.476,48.16,32.951,47.795,35.509z"/>
	<path fill="#EBDFDA" d="M121.912,54.633L91.198,43.982c-0.206,0.367-0.453,0.709-0.729,1.023l25.404,20.152
		C118.407,62.018,120.457,58.473,121.912,54.633z"/>
	<path fill="#D7C8B4" d="M123.909,47.159l-31.95-5.683c-0.069,0.906-0.336,1.754-0.761,2.505l30.714,10.651
		C122.815,52.246,123.491,49.746,123.909,47.159z"/>
	<path fill="#F0EEE3" d="M91.982,41c0,0.161-0.012,0.318-0.023,0.476l31.95,5.683c0.322-2.006,0.495-4.063,0.495-6.159
		c0-1.455-0.088-2.889-0.245-4.301l-32.228,3.544C91.962,40.493,91.982,40.743,91.982,41z"/>
	<radialGradient id="XMLID_27_" cx="98.8823" cy="4.1909" r="18.7239" gradientUnits="userSpaceOnUse">
		<stop  offset="0.4101" style="stop-color:#FFFFFF"/>
		<stop  offset="1" style="stop-color:#DFECDB"/>
	</radialGradient>
	<path fill="url(#XMLID_27_)" d="M85.904,2.5c-2.341,0-4.629,0.221-6.855,0.621c0.196,8.015,5.709,15.913,14.488,19.524
		c8.749,3.599,18.188,1.89,23.971-3.622C110.551,9.039,98.995,2.5,85.904,2.5z"/>
	<radialGradient id="XMLID_28_" cx="63.0068" cy="73.6465" r="14.0565" gradientUnits="userSpaceOnUse">
		<stop  offset="0" style="stop-color:#FFFFFF"/>
		<stop  offset="1" style="stop-color:#E7E6F0"/>
	</radialGradient>
	<path fill="url(#XMLID_28_)" d="M77.526,78.574c1.682-6.958-1.999-14.336-8.935-17.188c-4.937-2.03-10.308-1.271-14.333,1.54
		C59.684,70.74,67.933,76.445,77.526,78.574z"/>
	<linearGradient id="XMLID_29_" gradientUnits="userSpaceOnUse" x1="75.1099" y1="27.98" x2="96.9522" y2="54.3261">
		<stop  offset="0" style="stop-color:#879B95"/>
		<stop  offset="0.5056" style="stop-color:#8E8E9C"/>
		<stop  offset="1" style="stop-color:#9B8A91"/>
	</linearGradient>
	<path opacity="0.2" fill="url(#XMLID_29_)" d="M85.904,23.934c-9.426,0-17.065,7.64-17.065,17.066
		c0,9.424,7.64,17.065,17.065,17.065S102.969,50.425,102.969,41C102.969,31.574,95.33,23.934,85.904,23.934z M85.904,47.4
		c-3.535,0-6.4-2.865-6.4-6.399c0-3.535,2.865-6.4,6.4-6.4s6.4,2.865,6.4,6.4C92.304,44.535,89.439,47.4,85.904,47.4z"/>
	<linearGradient id="XMLID_30_" gradientUnits="userSpaceOnUse" x1="75.6499" y1="28.6318" x2="96.3978" y2="53.6579">
		<stop  offset="0" style="stop-color:#879B95"/>
		<stop  offset="0.5056" style="stop-color:#8E8E9C"/>
		<stop  offset="1" style="stop-color:#9B8A91"/>
	</linearGradient>
	<path fill="url(#XMLID_30_)" d="M85.904,24.79c-8.951,0-16.211,7.257-16.211,16.211c0,8.953,7.26,16.21,16.211,16.21
		s16.211-7.257,16.211-16.21C102.115,32.047,94.855,24.79,85.904,24.79z M85.904,47.079c-3.358,0-6.078-2.721-6.078-6.078
		c0-3.358,2.72-6.08,6.078-6.08s6.078,2.722,6.078,6.08C91.982,44.358,89.262,47.079,85.904,47.079z"/>
	<linearGradient id="XMLID_31_" gradientUnits="userSpaceOnUse" x1="81.5249" y1="36.6211" x2="90.373" y2="45.4692">
		<stop  offset="0" style="stop-color:#BBDBD8"/>
		<stop  offset="1" style="stop-color:#D8BDB6"/>
	</linearGradient>
	<path fill="url(#XMLID_31_)" d="M85.904,34.169c-3.771,0-6.83,3.058-6.83,6.832c0,3.772,3.059,6.831,6.83,6.831
		s6.83-3.059,6.83-6.831C92.734,37.227,89.675,34.169,85.904,34.169z M85.904,47.157c-3.399,0-6.156-2.756-6.156-6.156
		c0-3.401,2.757-6.156,6.156-6.156S92.06,37.6,92.06,41C92.06,44.4,89.303,47.157,85.904,47.157z"/>
	<path opacity="0.08" fill="#FFFFFF" d="M69.891,38.472c-0.128,0.824-0.198,1.667-0.198,2.528c0,0.65,0.043,1.289,0.119,1.92
		l10.018-1.816c0-0.035-0.004-0.069-0.004-0.104c0-0.404,0.041-0.798,0.116-1.18L69.891,38.472z M102.004,39.136l-10.073,1.108
		c0.031,0.249,0.051,0.499,0.051,0.756c0,0.161-0.012,0.318-0.023,0.476l9.997,1.778c0.103-0.738,0.159-1.489,0.159-2.254
		C102.115,40.369,102.074,39.748,102.004,39.136z M90.469,45.005l7.944,6.303c0.987-1.196,1.805-2.537,2.421-3.984l-9.637-3.342
		C90.992,44.349,90.745,44.691,90.469,45.005z M70.907,34.845l9.754,3.089c0.192-0.329,0.416-0.638,0.665-0.924l-8.114-6.086
		C72.269,32.107,71.49,33.425,70.907,34.845z"/>
	<path opacity="0.5" fill="#FFFFFF" d="M85.904,2.5C64.64,2.5,47.398,19.738,47.398,41c0,13.424,6.875,25.238,17.296,32.128
		C54.59,66.252,47.95,54.618,47.95,41.421c0-21.126,17.025-38.252,38.022-38.252c20.995,0,38.016,17.126,38.016,38.252
		c0,11.132-4.728,21.15-12.271,28.14c7.791-7.044,12.687-17.23,12.687-28.561C124.404,19.738,107.166,2.5,85.904,2.5z"/>
	<path opacity="0.6" fill="#3D3D3D" d="M72.006,45c-0.873,0-1.13,0.231-1.409,1c-1.048,0-54.939,0-55.459,0
		c-0.472-0.785-0.98-1-1.948-1H4.586c-1.48,0-2.688,1.191-2.688,2.655v75.688c0,1.465,1.207,2.656,2.688,2.656h77.301
		c1.112,0,2.017-0.895,2.017-1.992V52.967c0-0.913-0.494-2.09-1.147-2.736l-4.148-4.097C77.955,45.487,76.764,45,75.838,45H72.006z"
		/>
	<path opacity="0.2" fill="#3D3D3D" d="M72.006,46c-0.873,0-1.13,0.559-1.409,1.328c-1.048,0-54.939,0-55.459,0
		C14.666,46.543,14.157,46,13.189,46H4.586c-1.48,0-2.688,1.191-2.688,2.655v75.688c0,1.464,1.207,2.656,2.688,2.656h77.301
		c1.112,0,2.017-0.895,2.017-1.992V53.967c0-0.914-0.494-2.09-1.147-2.737l-4.147-4.097C77.955,46.487,76.764,46,75.838,46H72.006z"
		/>
	<linearGradient id="XMLID_32_" gradientUnits="userSpaceOnUse" x1="12.6602" y1="50.252" x2="74.5598" y2="127.3782">
		<stop  offset="0" style="stop-color:#EDECF5"/>
		<stop  offset="1" style="stop-color:#D2D2DC"/>
	</linearGradient>
	<path fill="url(#XMLID_32_)" d="M81.96,50.994l-4.113-4.063C77.329,46.419,76.304,46,75.571,46H71.77
		c-0.733,0-0.865,0.593-0.865,1.316H14.977C14.697,46.554,14.298,46,13.432,46H4.898c-1.101,0-2,0.889-2,1.975v75.049
		c0,1.087,0.899,1.976,2,1.976h76.672c0.733,0,1.333-0.594,1.333-1.317V53.241C82.904,52.517,82.48,51.505,81.96,50.994z"/>
	<linearGradient id="XMLID_33_" gradientUnits="userSpaceOnUse" x1="5.2217" y1="46.1162" x2="76.5597" y2="125.2365">
		<stop  offset="0" style="stop-color:#D9D8E1"/>
		<stop  offset="1" style="stop-color:#BEBFC9"/>
	</linearGradient>
	<path fill="url(#XMLID_33_)" d="M71.525,47l-0.106,0.014c-0.005,0.006-0.091,0.113-0.091,0.645c0,0.363-0.297,0.658-0.661,0.658
		H15.213c-0.28,0-0.529-0.174-0.623-0.437C14.321,47.14,14.065,47,13.682,47H5.22c-0.729,0-1.321,0.59-1.321,1.316v74.368
		c0,0.726,0.593,1.316,1.321,1.316h76.022c0.364,0,0.662-0.295,0.662-0.658V53.581c0-0.546-0.354-1.395-0.742-1.781l-4.08-4.062
		C76.695,47.352,75.841,47,75.293,47H71.525z"/>
	<polygon fill="#E1E1E8" points="13.898,79 69.223,79 69.904,78 14.559,78 	"/>
	<linearGradient id="XMLID_34_" gradientUnits="userSpaceOnUse" x1="41.8984" y1="37.0649" x2="41.8984" y2="87.9841">
		<stop  offset="0" style="stop-color:#D9D8E1"/>
		<stop  offset="1" style="stop-color:#C6C7D1"/>
	</linearGradient>
	<rect x="14.785" y="48.307" fill="url(#XMLID_34_)" width="54.231" height="29.097"/>
	<path opacity="0.5" fill="#3D3D3D" d="M30.577,45c-0.375,0-0.679,0.296-0.679,0.66v31.68c0,0.365,0.304,0.66,0.679,0.66h38.648
		c0.374,0,0.679-0.295,0.679-0.66V45.66c0-0.364-0.305-0.66-0.679-0.66H30.577z M59.898,51v21h-10V51H59.898z"/>
	<linearGradient id="XMLID_35_" gradientUnits="userSpaceOnUse" x1="32.6489" y1="44.2505" x2="66.163" y2="77.7646">
		<stop  offset="0.1517" style="stop-color:#8B8BA0"/>
		<stop  offset="0.216" style="stop-color:#ADACBD"/>
		<stop  offset="0.2969" style="stop-color:#D1CFDD"/>
		<stop  offset="0.3626" style="stop-color:#E8E5F0"/>
		<stop  offset="0.4045" style="stop-color:#F0EDF7"/>
		<stop  offset="0.466" style="stop-color:#E7E4EE"/>
		<stop  offset="0.566" style="stop-color:#CFCDD7"/>
		<stop  offset="0.6067" style="stop-color:#C3C2CC"/>
		<stop  offset="1" style="stop-color:#D1D0DB"/>
	</linearGradient>
	<path fill="url(#XMLID_35_)" d="M30.898,46v31h38.005V46H30.898z M60.898,73h-12V50h12V73z"/>
	<path fill="#C3C3D4" d="M70.904,123c0,1.1-0.9,2-2,2H15.898c-1.1,0-2-0.9-2-2V83c0-1.1,0.9-2,2-2h53.005c1.1,0,2,0.9,2,2V123z"/>
	<linearGradient id="XMLID_36_" gradientUnits="userSpaceOnUse" x1="19.6748" y1="82.1387" x2="65.1275" y2="115.1386">
		<stop  offset="0.0056" style="stop-color:#FAFAFD"/>
		<stop  offset="1" style="stop-color:#FAFAFD"/>
	</linearGradient>
	<rect x="14.898" y="81" fill="url(#XMLID_36_)" width="56.005" height="36"/>
	
		<radialGradient id="XMLID_37_" cx="27.5298" cy="112.334" r="43.8227" gradientTransform="matrix(1 0 0 1 0.0356 0)" gradientUnits="userSpaceOnUse">
		<stop  offset="0.0056" style="stop-color:#90618D"/>
		<stop  offset="1" style="stop-color:#633E69"/>
	</radialGradient>
	<rect x="14.898" y="117" fill="url(#XMLID_37_)" width="56.005" height="8"/>
	<linearGradient id="XMLID_38_" gradientUnits="userSpaceOnUse" x1="56.2314" y1="76.5" x2="34.8981" y2="76.5">
		<stop  offset="0.0056" style="stop-color:#F5F5F5"/>
		<stop  offset="1" style="stop-color:#E4E2EC"/>
	</linearGradient>
	<rect x="30.898" y="76" fill="url(#XMLID_38_)" width="38.005" height="1"/>
	<linearGradient id="XMLID_39_" gradientUnits="userSpaceOnUse" x1="45.5654" y1="46.5" x2="68.8988" y2="46.5">
		<stop  offset="0.0056" style="stop-color:#C5C5D5"/>
		<stop  offset="0.6685" style="stop-color:#FFFFFF"/>
		<stop  offset="1" style="stop-color:#CDCDDC"/>
	</linearGradient>
	<rect x="30.898" y="46" fill="url(#XMLID_39_)" width="38.005" height="1"/>
	<linearGradient id="XMLID_40_" gradientUnits="userSpaceOnUse" x1="56.8984" y1="49.5" x2="50.1616" y2="49.5">
		<stop  offset="0.0056" style="stop-color:#FFFFFF"/>
		<stop  offset="1" style="stop-color:#E4E2EC"/>
	</linearGradient>
	<polygon fill="url(#XMLID_40_)" points="60.898,50 48.898,50 49.564,49 60.23,49 	"/>
	<polygon fill="#E3E3F7" points="48.898,73 60.898,73 60.23,74 49.564,74 	"/>
	<linearGradient id="XMLID_41_" gradientUnits="userSpaceOnUse" x1="18.8984" y1="88.5" x2="66.8984" y2="88.5">
		<stop  offset="0.0056" style="stop-color:#D9D8DB"/>
		<stop  offset="1" style="stop-color:#D4D4D9"/>
	</linearGradient>
	<rect x="18.898" y="88" fill="url(#XMLID_41_)" width="48.005" height="1"/>
	<linearGradient id="XMLID_42_" gradientUnits="userSpaceOnUse" x1="18.8984" y1="95.5" x2="66.8984" y2="95.5">
		<stop  offset="0.0056" style="stop-color:#D9D8DB"/>
		<stop  offset="1" style="stop-color:#D4D4D9"/>
	</linearGradient>
	<rect x="18.898" y="95" fill="url(#XMLID_42_)" width="48.005" height="1"/>
	<linearGradient id="XMLID_43_" gradientUnits="userSpaceOnUse" x1="18.8984" y1="102.5" x2="67.29" y2="102.5">
		<stop  offset="0.0056" style="stop-color:#D9D8DB"/>
		<stop  offset="1" style="stop-color:#D4D4D9"/>
	</linearGradient>
	<rect x="18.898" y="102" fill="url(#XMLID_43_)" width="48.397" height="1"/>
	<linearGradient id="XMLID_44_" gradientUnits="userSpaceOnUse" x1="18.8984" y1="109.5" x2="66.8984" y2="109.5">
		<stop  offset="0.0056" style="stop-color:#D9D8DB"/>
		<stop  offset="1" style="stop-color:#D4D4D9"/>
	</linearGradient>
	<rect x="18.898" y="109" fill="url(#XMLID_44_)" width="48.005" height="1"/>
	<linearGradient id="XMLID_45_" gradientUnits="userSpaceOnUse" x1="18.2363" y1="124.5" x2="68.6452" y2="124.5">
		<stop  offset="0.0056" style="stop-color:#A16D9C"/>
		<stop  offset="1" style="stop-color:#9D689E"/>
	</linearGradient>
	<rect x="14.898" y="124" fill="url(#XMLID_45_)" width="56.089" height="1"/>
	<polygon fill="#ADADB8" points="14.123,46.983 14.785,47.645 14.785,77.403 14.123,78.071 	"/>
	<polygon fill="#DADAE0" points="69.904,78 70.904,77.341 70.904,47 69.904,47 	"/>
	<path fill="#D9D8DB" d="M10.898,119c0,1.1-0.9,2-2,2l0,0c-1.1,0-2-0.9-2-2v-2c0-1.1,0.9-2,2-2l0,0c1.1,0,2,0.9,2,2V119z"/>
	<linearGradient id="XMLID_46_" gradientUnits="userSpaceOnUse" x1="8.8984" y1="120" x2="8.8984" y2="116.6667">
		<stop  offset="0.1798" style="stop-color:#7F7F7F"/>
		<stop  offset="1" style="stop-color:#3F3F3F"/>
	</linearGradient>
	<rect x="6.898" y="116" fill="url(#XMLID_46_)" width="4" height="4"/>
	<linearGradient id="XMLID_47_" gradientUnits="userSpaceOnUse" x1="31.3984" y1="47" x2="31.3984" y2="80.9999">
		<stop  offset="0.0056" style="stop-color:#ACACBA"/>
		<stop  offset="0.9775" style="stop-color:#EDEDED"/>
	</linearGradient>
	<rect x="30.898" y="47" fill="url(#XMLID_47_)" width="1" height="30"/>
	<path opacity="0.2" fill="#141414" d="M76.904,59c-1.103,0-2,0.897-2,2c0,0,0,18.186,0,20c-1.814,0-20.005,0-20.005,0
		c-1.103,0-2,0.897-2,2v14c0,0.584,0.25,1.129,0.687,1.492c0.367,0.308,0.839,0.447,1.314,0.408c0.001,0,18.19,0,20.004,0
		c0,1.814,0,20.1,0,20.1c0,1.104,0.897,2,2,2h14c1.103,0,2-0.896,2-2c0,0,0-18.285,0-20.1c1.814,0,19.998,0,19.999,0
		c0.476,0.039,0.945-0.1,1.314-0.408c0.437-0.363,0.687-0.908,0.687-1.492V83c0-1.103-0.897-2-2-2c0,0-18.186,0-20,0
		c0-1.814,0-20,0-20c0-1.103-0.897-2-2-2H76.904z"/>
	<path opacity="0.2" fill="#141414" d="M112.904,82h-21V61c0-0.552-0.447-1-1-1h-14c-0.553,0-1,0.448-1,1v21H54.898
		c-0.553,0-1,0.447-1,1v14c0,0.553,0.447,1,1,0.9h21.005V119c0,0.553,0.447,1,1,1h14c0.553,0,1-0.447,1-1V97.9h21
		c0.553,0.1,1-0.348,1-0.9V83C113.904,82.447,113.457,82,112.904,82z"/>
	<path opacity="0.7" fill="#4F9E05" d="M112.904,81h-21V60c0-0.552-0.447-1-1-1h-14c-0.553,0-1,0.448-1,1v21H54.898
		c-0.553,0-1,0.447-1,1v14c0,0.553,0.447,1,1,0.9h21.005V118c0,0.553,0.447,1,1,1h14c0.553,0,1-0.447,1-1V96.9h21
		c0.553,0.1,1-0.348,1-0.9V82C113.904,81.447,113.457,81,112.904,81z"/>
	<polygon fill="#7ECB15" points="112.904,82 90.904,82 90.904,60 76.904,60 76.904,82 54.898,82 54.898,95.9 76.904,95.9 
		76.904,118 90.904,118 90.904,95.9 112.904,95.9 	"/>
	<linearGradient id="XMLID_48_" gradientUnits="userSpaceOnUse" x1="88.6069" y1="65.9521" x2="80.6068" y2="94.9525">
		<stop  offset="0.0056" style="stop-color:#AEDC79"/>
		<stop  offset="1" style="stop-color:#91D148"/>
	</linearGradient>
	<path fill="url(#XMLID_48_)" d="M112.904,84c-16,0-43,3-58.005,11c0-7,0-13,0-13h22.005V60h14v22h22V84z"/>
</svg>
