<?xml version="1.0" encoding="utf-8"?>
<!DOCTYPE svg PUBLIC "-//W3C//DTD SVG 1.1//EN" "http://www.w3.org/Graphics/SVG/1.1/DTD/svg11.dtd" [
	<!ENTITY ns_svg "http://www.w3.org/2000/svg">
	<!ENTITY ns_xlink "http://www.w3.org/1999/xlink">
]>
<svg  version="1.1" xmlns="&ns_svg;" xmlns:xlink="&ns_xlink;" width="128" height="128" viewBox="0 0 128 128"
	 overflow="visible" enable-background="new 0 0 128 128" xml:space="preserve">
	<path opacity="0.2" d="M30.666,7C28.816,7,27,8.83,27,10.694c0,106.39,0,106.39,0,109.807c0,3.917,4,4.499,4,4.499h87
		c0,0,4-0.268,4-4.018s0-78.479,0-78.479C122,37.306,94.325,7,87.135,7H30.666z"/>
	<path opacity="0.2" d="M30.666,8C28.816,8,27,9.83,27,11.694c0,106.39,0,106.39,0,109.807c0,3.917,5,4.499,5,4.499h85
		c0,0,5-0.268,5-4.018s0-78.479,0-78.479C122,38.306,94.325,8,87.135,8H30.666z"/>
	<path opacity="0.6" fill="#262626" d="M30.666,6C28.816,6,27,7.83,27,9.694c0,106.39,0,106.39,0,109.807c0,3.917,3,4.499,3,4.499
		h89c0,0,3-0.268,3-4.018s0-78.479,0-78.479C122,36.306,94.325,6,87.135,6H30.666z"/>
	<linearGradient id="XMLID_11_" gradientUnits="userSpaceOnUse" x1="74.5" y1="5.0483" x2="74.5" y2="124.2407">
		<stop  offset="0" style="stop-color:#FFFFFF"/>
		<stop  offset="1" style="stop-color:#E1E1DF"/>
	</linearGradient>
	<path fill="url(#XMLID_11_)" d="M121,120.113c0,2.584-2.398,2.887-2.398,2.887H30.498c0,0-2.498-0.475-2.498-3.083
		C28,100.1,28,10.861,28,9.694C28,8.374,29.359,7,30.666,7c0.994,0,48.469,0,56.469,0C94.167,7,121,37.326,121,41.504
		C121,46.123,121,104.649,121,120.113z"/>
	<linearGradient id="XMLID_12_" gradientUnits="userSpaceOnUse" x1="74.5" y1="11.0815" x2="74.5" y2="121.4677">
		<stop  offset="0" style="stop-color:#FDFDFD"/>
		<stop  offset="0.2985" style="stop-color:#F3F2F2"/>
		<stop  offset="0.8174" style="stop-color:#D7D6D6"/>
		<stop  offset="1" style="stop-color:#CCCBCA"/>
	</linearGradient>
	<path fill="url(#XMLID_12_)" d="M120,119.282c0,2.481-2,2.718-2,2.718H31c0,0-2-0.163-2-2.249c0-18.015,0-108.874,0-110.057
		C29,8.374,30.317,7,31.583,7c0.964,0,47.859,0,55.61,0C94.006,7,120,37.326,120,41.504C120,46.134,120,104.178,120,119.282z"/>
	<radialGradient id="XMLID_13_" cx="110" cy="32.8696" r="15.596" gradientUnits="userSpaceOnUse">
		<stop  offset="0.2135" style="stop-color:#8E8E8F"/>
		<stop  offset="0.927" style="stop-color:#EEEEEE"/>
	</radialGradient>
	<path fill="url(#XMLID_13_)" d="M120,39c0,7.18-2.82,13-10,13s-16-5.82-16-13s2.82-9,10-9S115,34,120,39z"/>
	<path opacity="0.5" fill="#343434" d="M84.415,6.963c0.547,0,0.947,0.002,3.616,1.193c4.182,1.891,4.103,22.225,4.103,26.673
		l-0.001,0.128c0,0.521,0.399,0.959,0.918,1.002c5.973,0.496,23.318-0.848,26.406,4.026c1.199,1.608,1.365,2.858,1.918,2.858
		S122,42.057,122,41.504c0-0.797-0.257-1.574-0.766-2.428c-0.004-0.009-0.002-0.018-0.006-0.026
		c-0.014-0.028-0.038-0.065-0.053-0.094v-0.001c-2.305-4.699-25.79-30.381-32.354-32.59c-0.006-0.002-0.007-0.008-0.012-0.01
		c-0.007-0.003-0.015-0.002-0.021-0.004c-0.021-0.008-0.049-0.023-0.07-0.031c-0.094-0.029-0.187-0.041-0.279-0.043
		C88.01,6.133,87.578,6,87.135,6C86.627,6,84.473,6.457,84.415,6.963z"/>
	<linearGradient id="XMLID_14_" gradientUnits="userSpaceOnUse" x1="92.0234" y1="9.9473" x2="104.2732" y2="32.9468">
		<stop  offset="0" style="stop-color:#FFFEFE"/>
		<stop  offset="1" style="stop-color:#CFD0D0"/>
	</linearGradient>
	<path fill="url(#XMLID_14_)" d="M121,41.504c-3.375-8.629-27.867-6.542-27.867-6.542C93.003,37.629,94.632,7,87.135,7
		C94.168,7,121,38.814,121,41.504z"/>
	<linearGradient id="XMLID_15_" gradientUnits="userSpaceOnUse" x1="99.5303" y1="5.1816" x2="105.9051" y2="31.931">
		<stop  offset="0" style="stop-color:#FCFDFD"/>
		<stop  offset="1" style="stop-color:#EEEEEE"/>
	</linearGradient>
	<path fill="url(#XMLID_15_)" d="M121,41.504c-1.5-7.941-26.75-8.066-26.75-8.066C94.225,36.104,94.524,7,87.135,7
		C94.168,7,121,38.814,121,41.504z"/>
	<circle fill="#245194" cx="21" cy="21" r="21"/>
	<path fill="#FFFFFF" d="M1.917,22.661c-0.184,0.021,13.768-2.151,18.911,12.146c3.208-13.267,18.657-13.39,18.528-13.384
		c0.368,0-12.723-3.357-18.617,5.189C14.757,19.067,1.493,22.661,1.917,22.661z"/>
	<path fill="#FFFFFF" d="M12.169,11.364c0,0,8.426-1.813,11.73,7.303c2.07-8.501,11.492-7.777,11.492-7.777
		s-7.664-2.973-11.548,2.617C19.872,8.533,12.166,11.364,12.169,11.364z"/>
	<path opacity="0.3" fill="#38251C" d="M37.644,75.235c0,20.438,16.768,37.065,37.378,37.065c20.61,0,37.378-16.627,37.378-37.065
		S95.633,38.169,75.022,38.169C54.412,38.169,37.644,54.797,37.644,75.235z"/>
	<path opacity="0.7" fill="#543221" d="M37,74c0,20.401,16.598,37,37,37c20.402,0,37-16.599,37-37c0-20.402-16.598-37-37-37
		C53.598,37,37,53.598,37,74z"/>
	
		<radialGradient id="XMLID_16_" cx="31.4492" cy="7.3115" r="88.4766" gradientTransform="matrix(1.0616 0 0 1.0882 5.2929 15.3832)" gradientUnits="userSpaceOnUse">
		<stop  offset="0.6854" style="stop-color:#F47302"/>
		<stop  offset="1" style="stop-color:#FA9827"/>
	</radialGradient>
	<circle fill="url(#XMLID_16_)" cx="74" cy="74" r="36"/>
	
		<radialGradient id="XMLID_17_" cx="32.2935" cy="8.4932" r="86.2318" gradientTransform="matrix(1.0616 0 0 1.0882 5.2929 15.3832)" gradientUnits="userSpaceOnUse">
		<stop  offset="0.6854" style="stop-color:#F47302"/>
		<stop  offset="1" style="stop-color:#FAB627"/>
	</radialGradient>
	<circle fill="url(#XMLID_17_)" cx="74.001" cy="74" r="35.087"/>
	<path fill="#F15B00" d="M105.262,56.193c-0.572-0.624-1.27-1.465-1.293-1.615c-0.02-0.131,0.064-0.185,0.188-0.208
		c-1.98-3.034-4.388-5.761-7.165-8.067c-0.708-0.051-0.655,0.019,0.56,1.148c0.588,0.548,1.115,1.291,1.172,1.647
		c0.095,0.608,0.021,0.634-1.02,0.36c-1.209-0.322-1.502-0.026-1.244,1.263c0.089,0.456,0.143,1.468,0.117,2.254
		c-0.035,1.26,0.031,1.392,0.598,1.15c0.352-0.15,0.697-0.08,0.762,0.159c0.067,0.238,0.162,0.526,0.205,0.644
		c0.039,0.117,0.318-0.075,0.611-0.424c0.49-0.576,0.507-0.568,0.156,0.104c-0.207,0.404-0.255,0.706-0.109,0.671
		c0.152-0.037,0.058,0.29-0.206,0.725c-0.263,0.436-0.376,0.859-0.249,0.942c0.279,0.189-1.387,2.034-1.881,2.079
		c-0.201,0.022-0.326,0.276-0.282,0.57c0.046,0.294-0.131,1.168-0.396,1.941c-0.259,0.773-0.353,1.932-0.209,2.575
		c0.139,0.642,0.119,1.12-0.044,1.062c-0.171-0.059-0.138,0.959,0.071,2.261c0.267,1.69,0.488,2.314,0.791,2.177
		c0.236-0.105,0.73,0.291,1.104,0.877c0.952,1.508,2.652,2.296,3.457,1.609c0.342-0.292,0.914-0.508,1.272-0.48
		c0.359,0.029,0.922-0.256,1.252-0.634c0.78-0.893,1.458-1.06,1.562-0.386c0.048,0.303,0.398,0.459,0.816,0.359
		c0.662-0.16,0.734-0.028,0.725,1.313c-0.008,0.83,0.295,2.226,0.681,3.146c0.577,1.389,0.627,1.829,0.296,2.778
		c-0.231,0.669-0.27,2.758-0.092,5.121c0.094,1.24,0.156,2.468,0.183,3.394C109.145,82.751,110,78.48,110,74
		C110,67.516,108.262,61.449,105.262,56.193z M95.291,45.019c-0.216-0.161-0.425-0.33-0.645-0.483
		C94.791,44.826,95.025,45.042,95.291,45.019z M81.115,76.425c-0.207,0.122-0.574-0.038-0.82-0.353
		c-0.248-0.314-0.666-0.545-0.93-0.514c-0.265,0.031-1.227-0.362-2.145-0.881c-1.355-0.764-1.744-0.857-2.051-0.49
		c-0.198,0.246-0.158,0.108,0.105-0.312c0.307-0.499,0.375-0.825,0.191-0.946c-0.15-0.102-0.281-0.438-0.281-0.752
		c-0.002-0.775-0.919-1.586-1.955-1.717c-1.023-0.13-2.867-1.723-2.883-2.496c-0.008-0.307-0.165-0.531-0.348-0.499
		c-0.924,0.152-1.304,0.032-1.127-0.353c0.116-0.261,0.068-0.309-0.125-0.134c-0.174,0.158-0.244,0.419-0.154,0.583
		c0.184,0.344-0.035,0.395-0.887,0.208c-0.333-0.073-0.531-0.3-0.44-0.507c0.092-0.205,0.048-0.269-0.091-0.137
		c-0.146,0.129-0.594,0.059-0.997-0.152c-0.405-0.214-0.732-0.242-0.728-0.068c0.006,0.178-0.125,0.338-0.281,0.356
		c-0.162,0.019-0.203-0.155-0.101-0.388c0.134-0.297,0.034-0.326-0.325-0.105c-0.283,0.178-0.74,0.408-1.025,0.512
		c-0.28,0.106-0.734,0.529-1.001,0.941c-0.573,0.866-0.604,0.877-1.313,0.494c-0.367-0.201-0.692-0.163-1.046,0.121
		c-1.061,0.854-1.73-0.082-1.795-2.529c-0.042-1.463-0.383-1.67-2.069-1.238c-0.851,0.221-0.977,0.178-0.737-0.249
		c0.161-0.281,0.221-0.593,0.132-0.69c-0.093-0.097,0.013-0.689,0.235-1.317c0.446-1.277,0.306-1.813-0.408-1.555
		c-0.262,0.095-0.622,0.204-0.79,0.24c-0.173,0.034-0.372,0.445-0.441,0.913c-0.086,0.582-0.382,0.945-0.942,1.152
		c-1.117,0.419-1.54,0.2-2.117-1.096c-0.632-1.401-0.701-2.563-0.221-3.602c0.549-1.19,2.188-2.629,2.835-2.488
		c0.359,0.075,0.546-0.062,0.534-0.387c-0.028-0.553,0.525-0.698,1.919-0.506c0.656,0.095,1.009,0.421,1.304,1.206
		c0.477,1.263,1.243,2.06,1.465,1.534c0.187-0.44-0.322-2.003-0.746-2.283c-0.575-0.383-0.374-1.892,0.384-2.844
		c1.126-1.405,1.206-1.787,0.614-2.85c-0.498-0.9-0.499-0.939-0.029-0.518c0.433,0.38,0.509,0.371,0.499-0.057
		c-0.005-0.282,0.225-0.955,0.513-1.505c0.288-0.547,0.522-1.273,0.515-1.615c-0.01-0.507,0.198-0.607,1.133-0.549
		c0.713,0.041,1.139-0.079,1.136-0.329c-0.006-0.222,0.276-0.488,0.626-0.595c0.405-0.122,0.623-0.436,0.588-0.852
		c-0.066-0.776,1.172-1.081,1.414-0.352c0.107,0.316,0.162,0.277,0.171-0.113c0.017-0.508,0.052-0.512,0.308-0.038
		c0.249,0.47,0.284,0.457,0.277-0.081c-0.004-0.342-0.281-0.997-0.621-1.455c-0.334-0.458-0.523-0.629-0.419-0.377
		c0.362,0.859-0.349,0.521-0.852-0.409c-0.483-0.882-0.974-1.52-1.353-1.82c-8.954,2.75-16.411,8.9-20.885,16.943
		c0.145,0.274,0.241,0.533,0.254,0.711c0.027,0.352,0.188,0.734,0.354,0.842c0.169,0.109,0.256,0.495,0.191,0.858
		c-0.066,0.405,0.066,0.72,0.332,0.819c0.246,0.088,0.458,0.378,0.476,0.648c0.02,0.268,0.306,0.744,0.637,1.062
		c0.523,0.498,0.594,0.5,0.562,0.007c-0.019-0.308-0.181-0.65-0.352-0.76c-0.172-0.107-0.255-0.43-0.195-0.712
		c0.061-0.284,0-0.503-0.138-0.489c-0.138,0.018-0.485-0.468-0.771-1.077l-0.521-1.113l0.939,1.155
		c0.516,0.631,1.034,1.3,1.155,1.479c0.897,1.344,2.053,2.59,2.298,2.484c0.161-0.069,0.078,0.128-0.184,0.44
		c-0.633,0.742-0.27,1.291,0.759,1.17c0.455-0.053,0.759,0.06,0.683,0.254c-0.256,0.623,1.271,1.333,2.703,1.262
		c0.936-0.046,1.604,0.137,2.033,0.553c0.347,0.344,1.063,0.681,1.598,0.752c1.041,0.145,2.234,1.121,2.264,1.849
		c0.006,0.248,0.132,0.435,0.27,0.418c0.142-0.016,0.421,0.153,0.625,0.378c0.533,0.571,2.165,0.754,2.064,0.23
		c-0.041-0.225,0.072-0.424,0.257-0.445c0.187-0.021,0.355,0.11,0.375,0.293c0.021,0.184,0.139,0.399,0.263,0.476
		c0.12,0.079,0.274,0.699,0.346,1.376c0.103,1.032-0.009,1.396-0.706,2.273c-1.14,1.45-1.534,4.159-0.778,5.303
		c0.77,1.167,1.745,3.279,2.179,4.703c0.085,0.283,0.614,0.74,1.172,1.012c1.255,0.609,1.79,1.617,1.611,3.016
		c-0.224,1.73-0.397,3.785-0.382,4.424c0.01,0.332-0.113,1.229-0.278,1.992c-0.165,0.759-0.36,2.055-0.431,2.877
		c-0.073,0.818-0.261,1.599-0.416,1.736c-0.201,0.176-0.179,0.238,0.063,0.211c0.244-0.025,0.273,0.078,0.1,0.359
		c-0.389,0.635,0.139,1.604,1.045,1.92c0.762,0.264,1.7,0.134,1.693-0.229c0-0.081-0.203-0.304-0.448-0.488
		c-0.419-0.319-0.411-0.383,0.151-1.014c0.424-0.479,0.515-0.731,0.298-0.857c-0.202-0.118,0.146-0.695,1.036-1.72
		c0.739-0.853,1.455-1.564,1.584-1.581c0.396-0.048,0.927-1.057,0.841-1.597c-0.059-0.381,0.067-0.493,0.5-0.454
		c0.569,0.049,1.916-1.396,3.163-3.382c0.248-0.403,0.772-1.017,1.159-1.359c0.388-0.344,0.706-0.82,0.706-1.057
		c0-0.234,0.379-0.626,0.841-0.869c0.937-0.496,2.107-2.405,2.389-3.92c0.103-0.547,0.719-1.801,1.368-2.791
		c0.834-1.269,1.188-2.088,1.201-2.771C81.483,76.477,81.385,76.266,81.115,76.425z"/>
	
		<radialGradient id="XMLID_18_" cx="51.1489" cy="31.0356" r="39.993" gradientTransform="matrix(1.0553 0 0 1.0882 6.3498 15.3832)" gradientUnits="userSpaceOnUse">
		<stop  offset="0" style="stop-color:#FDE2D1"/>
		<stop  offset="1" style="stop-color:#F9AF45"/>
	</radialGradient>
	<path fill="url(#XMLID_18_)" d="M74.001,85.461c15.917,0,29.468-6.729,34.82-16.187c-2.451-17.159-17.084-30.36-34.82-30.36
		c-17.738,0-32.37,13.201-34.821,30.36C44.534,78.732,58.082,85.461,74.001,85.461z"/>
	
		<radialGradient id="XMLID_19_" cx="51.8413" cy="31.0356" r="39.8997" gradientTransform="matrix(1.0616 0 0 1.0882 5.2929 15.3832)" gradientUnits="userSpaceOnUse">
		<stop  offset="0" style="stop-color:#FDE7D9"/>
		<stop  offset="1" style="stop-color:#F48341"/>
	</radialGradient>
	<path fill="url(#XMLID_19_)" d="M81.115,76.425c-0.207,0.122-0.574-0.038-0.82-0.353c-0.248-0.314-0.666-0.545-0.93-0.514
		c-0.265,0.031-1.227-0.362-2.145-0.881c-1.355-0.764-1.744-0.857-2.051-0.49c-0.198,0.246-0.158,0.108,0.105-0.312
		c0.307-0.499,0.375-0.825,0.191-0.946c-0.15-0.102-0.281-0.438-0.281-0.752c-0.002-0.775-0.919-1.586-1.955-1.717
		c-1.023-0.13-2.867-1.723-2.883-2.496c-0.008-0.307-0.165-0.531-0.348-0.499c-0.924,0.152-1.304,0.032-1.127-0.353
		c0.116-0.261,0.068-0.309-0.125-0.134c-0.174,0.158-0.244,0.419-0.154,0.583c0.184,0.344-0.035,0.395-0.887,0.208
		c-0.333-0.073-0.531-0.3-0.44-0.507c0.092-0.205,0.048-0.269-0.091-0.137c-0.146,0.129-0.594,0.059-0.997-0.152
		c-0.405-0.214-0.732-0.242-0.728-0.068c0.006,0.178-0.125,0.338-0.281,0.356c-0.162,0.019-0.203-0.155-0.101-0.388
		c0.134-0.297,0.034-0.326-0.325-0.105c-0.283,0.178-0.74,0.408-1.025,0.512c-0.28,0.106-0.734,0.529-1.001,0.941
		c-0.573,0.866-0.604,0.877-1.313,0.494c-0.367-0.201-0.692-0.163-1.046,0.121c-1.061,0.854-1.73-0.082-1.795-2.529
		c-0.042-1.463-0.383-1.67-2.069-1.238c-0.851,0.221-0.977,0.178-0.737-0.249c0.161-0.281,0.221-0.593,0.132-0.69
		c-0.093-0.097,0.013-0.689,0.235-1.317c0.446-1.277,0.306-1.813-0.408-1.555c-0.262,0.095-0.622,0.204-0.79,0.24
		c-0.173,0.034-0.372,0.445-0.441,0.913c-0.086,0.582-0.382,0.945-0.942,1.152c-1.117,0.419-1.54,0.2-2.117-1.096
		c-0.632-1.401-0.701-2.563-0.221-3.602c0.549-1.19,2.188-2.629,2.835-2.488c0.359,0.075,0.546-0.062,0.534-0.387
		c-0.028-0.553,0.525-0.698,1.919-0.506c0.656,0.095,1.009,0.421,1.304,1.206c0.477,1.263,1.243,2.06,1.465,1.534
		c0.187-0.44-0.322-2.003-0.746-2.283c-0.575-0.383-0.374-1.892,0.384-2.844c1.126-1.405,1.206-1.787,0.614-2.85
		c-0.498-0.9-0.499-0.939-0.029-0.518c0.433,0.38,0.509,0.371,0.499-0.057c-0.005-0.282,0.225-0.955,0.513-1.505
		c0.288-0.547,0.522-1.273,0.515-1.615c-0.01-0.507,0.198-0.607,1.133-0.549c0.713,0.041,1.139-0.079,1.136-0.329
		c-0.006-0.222,0.276-0.488,0.626-0.595c0.405-0.122,0.623-0.436,0.588-0.852c-0.066-0.776,1.172-1.081,1.414-0.352
		c0.107,0.316,0.162,0.277,0.171-0.113c0.017-0.508,0.052-0.512,0.308-0.038c0.249,0.47,0.284,0.457,0.277-0.081
		c-0.004-0.342-0.281-0.997-0.621-1.455c-0.334-0.458-0.523-0.629-0.419-0.377c0.362,0.859-0.349,0.521-0.852-0.409
		c-0.228-0.415-0.455-0.768-0.673-1.065c-9.174,2.704-16.783,9.07-21.183,17.419c0.065,0.148,0.145,0.269,0.227,0.322
		c0.169,0.109,0.256,0.495,0.191,0.858c-0.066,0.405,0.066,0.72,0.332,0.819c0.246,0.088,0.458,0.378,0.476,0.648
		c0.02,0.268,0.306,0.744,0.637,1.062c0.523,0.498,0.594,0.5,0.562,0.007c-0.019-0.308-0.181-0.65-0.352-0.76
		c-0.172-0.107-0.255-0.43-0.195-0.712c0.061-0.284,0-0.503-0.138-0.489c-0.138,0.018-0.485-0.468-0.771-1.077l-0.521-1.113
		l0.939,1.155c0.516,0.631,1.034,1.3,1.155,1.479c0.897,1.344,2.053,2.59,2.298,2.484c0.161-0.069,0.078,0.128-0.184,0.44
		c-0.633,0.742-0.27,1.291,0.759,1.17c0.455-0.053,0.759,0.06,0.683,0.254c-0.256,0.623,1.271,1.333,2.703,1.262
		c0.936-0.046,1.604,0.137,2.033,0.553c0.347,0.344,1.063,0.681,1.598,0.752c1.041,0.145,2.234,1.121,2.264,1.849
		c0.006,0.248,0.132,0.435,0.27,0.418c0.142-0.016,0.421,0.153,0.625,0.378c0.533,0.571,2.165,0.754,2.064,0.23
		c-0.041-0.225,0.072-0.424,0.257-0.445c0.187-0.021,0.355,0.11,0.375,0.293c0.021,0.184,0.139,0.399,0.263,0.476
		c0.12,0.079,0.274,0.699,0.346,1.376c0.103,1.032-0.009,1.396-0.706,2.273c-1.14,1.45-1.534,4.159-0.778,5.303
		c0.77,1.167,1.745,3.279,2.179,4.703c0.052,0.172,0.268,0.408,0.554,0.627c3.459,0.717,7.129,1.105,10.94,1.105
		c1.282,0,2.547-0.048,3.795-0.133c0.515-0.776,0.951-1.735,1.107-2.58c0.103-0.547,0.719-1.801,1.368-2.791
		c0.834-1.269,1.188-2.088,1.201-2.771C81.483,76.477,81.385,76.266,81.115,76.425z M98.73,49.158
		c0.078,0.545-0.025,0.564-1.027,0.3c-1.209-0.322-1.502-0.026-1.244,1.263c0.089,0.456,0.143,1.468,0.117,2.254
		c-0.035,1.26,0.031,1.392,0.598,1.15c0.352-0.15,0.697-0.08,0.762,0.159c0.067,0.238,0.162,0.526,0.205,0.644
		c0.039,0.117,0.318-0.075,0.611-0.424c0.49-0.576,0.507-0.568,0.156,0.104c-0.207,0.404-0.255,0.706-0.109,0.671
		c0.152-0.037,0.058,0.29-0.206,0.725c-0.263,0.436-0.376,0.859-0.249,0.942c0.279,0.189-1.387,2.034-1.881,2.079
		c-0.201,0.022-0.326,0.276-0.282,0.57c0.046,0.294-0.131,1.168-0.396,1.941c-0.259,0.773-0.353,1.932-0.209,2.575
		c0.139,0.642,0.119,1.12-0.044,1.062c-0.171-0.059-0.138,0.959,0.071,2.261c0.267,1.69,0.488,2.314,0.791,2.177
		c0.236-0.105,0.73,0.291,1.104,0.877c0.952,1.508,2.652,2.296,3.457,1.609c0.342-0.292,0.914-0.508,1.272-0.48
		c0.359,0.029,0.922-0.256,1.252-0.634c0.78-0.893,1.458-1.06,1.562-0.386c0.048,0.303,0.398,0.459,0.816,0.359
		c0.662-0.16,0.734-0.028,0.725,1.313c0,0.071,0.004,0.151,0.008,0.23c0.85-1.034,1.6-2.109,2.231-3.225
		C107.703,61.453,104.05,54.46,98.73,49.158z"/>
	
		<radialGradient id="XMLID_20_" cx="65.4287" cy="53.9658" r="33.1129" gradientTransform="matrix(1.0643 0 0 1.0928 4.3644 15.0256)" gradientUnits="userSpaceOnUse">
		<stop  offset="0.9494" style="stop-color:#FDE7CC"/>
		<stop  offset="1" style="stop-color:#F47302"/>
	</radialGradient>
	<path fill="url(#XMLID_20_)" d="M109.102,81.981c-0.623-2.114-1.412-4.333-2.387-6.453c0.793-0.927,1.275-2.156,1.242-3.505
		c-0.053-2.157-1.384-4.063-3.176-4.899c-0.504-6.475-2.397-12.912-4.516-17.731c-0.829-0.885-1.701-1.725-2.615-2.521
		c2.538,4.632,5.17,12.173,5.848,19.855c-0.171-0.027-0.344-0.045-0.517-0.053c-0.749-0.029-1.446,0.145-2.064,0.469
		c-8.55-8.41-23.07-12.862-31.307-12.862c-2.505,0-5.034,0.241-7.582,0.715c-0.136-1.729-1.054-3.109-2.414-3.732
		c4.696-8.21,11.373-11.521,14.692-13.165l0.173-0.086C74.318,38.011,74.16,38,74.001,38c-0.833,0-1.657,0.039-2.477,0.094
		c-3.759,2.037-9.196,5.688-13.176,12.83c-0.29-0.027-0.587-0.03-0.897,0.002c-2.764,0.297-5.389,2.901-5.75,5.736
		c-0.065,0.515-0.045,1.005,0.046,1.465c-4.193,1.773-8.423,4.157-12.673,7.136c-0.151,0.607-0.285,1.223-0.406,1.842
		c4.545-3.296,9.061-5.877,13.528-7.765c0.491,0.874,1.296,1.539,2.298,1.886c-0.824,3.623-1.313,7.77-1.313,12.549
		c0,6.65,1.345,12.237,3.297,16.855c-1.037,0.58-1.785,1.543-2.06,2.727c-7.029-2.654-12.089-6.621-14.885-8.957
		c0.23,0.764,0.484,1.517,0.763,2.258c3.07,2.435,7.803,5.739,14.016,8.031c0.006,0.092,0.006,0.18,0.017,0.273
		c0.327,2.871,2.918,5.477,5.681,5.74c0.836,0.078,1.605-0.078,2.271-0.415c2.564,3.159,5.126,5.343,6.856,6.634
		c1.62,1.205,3.288,2.234,4.944,3.076c0.939-0.002,1.867-0.05,2.789-0.123c-2.178-0.868-4.559-2.172-6.998-3.989
		c-1.662-1.237-4.11-3.325-6.571-6.341c0.631-0.625,1.075-1.465,1.265-2.439c1.484,0.163,3.016,0.26,4.604,0.26
		c13.103,0,28.647-9.925,33.901-20.154c0.037,0,0.074,0.005,0.111,0.005c0.941-0.009,1.823-0.313,2.567-0.823
		c1.21,2.688,2.091,5.502,2.719,8.004C108.709,83.604,108.917,82.797,109.102,81.981z M69.171,96.085
		c-1.554,0-3.054-0.091-4.504-0.251c-0.002-0.053,0.001-0.104-0.002-0.156c-0.176-3-2.638-5.51-5.56-5.646
		c-0.512-0.022-1,0.029-1.457,0.14c-1.904-4.485-3.219-9.919-3.219-16.396c0-4.689,0.481-8.756,1.293-12.298
		c0.23,0.018,0.463,0.027,0.704,0.015c2.769-0.146,5.14-2.408,5.557-5.181c2.566-0.494,5.11-0.75,7.627-0.75
		c7.968,0,21.966,4.271,30.274,12.338c-0.963,0.951-1.557,2.372-1.535,3.98c0.037,2.438,1.48,4.481,3.465,5.124
		C96.689,86.707,81.766,96.085,69.171,96.085z"/>
</svg>
