<?xml version="1.0" encoding="utf-8"?>
<!DOCTYPE svg PUBLIC "-//W3C//DTD SVG 1.1//EN" "http://www.w3.org/Graphics/SVG/1.1/DTD/svg11.dtd" [
	<!ENTITY ns_svg "http://www.w3.org/2000/svg">
	<!ENTITY ns_xlink "http://www.w3.org/1999/xlink">
]>
<svg  version="1.1" xmlns="&ns_svg;" xmlns:xlink="&ns_xlink;" width="128" height="128" viewBox="0 0 128 128"
	 overflow="visible" enable-background="new 0 0 128 128" xml:space="preserve">
	<path opacity="0.2" d="M30.666,7C28.816,7,27,8.83,27,10.694c0,106.39,0,106.39,0,109.807c0,3.917,4,4.499,4,4.499h87
		c0,0,4-0.268,4-4.018s0-78.479,0-78.479C122,37.306,94.325,7,87.135,7H30.666z"/>
	<path opacity="0.2" d="M30.666,8C28.816,8,27,9.83,27,11.694c0,106.39,0,106.39,0,109.807c0,3.917,5,4.499,5,4.499h85
		c0,0,5-0.268,5-4.018s0-78.479,0-78.479C122,38.306,94.325,8,87.135,8H30.666z"/>
	<path opacity="0.6" fill="#262626" d="M30.666,6C28.816,6,27,7.83,27,9.694c0,106.39,0,106.39,0,109.807c0,3.917,3,4.499,3,4.499
		h89c0,0,3-0.268,3-4.018s0-78.479,0-78.479C122,36.306,94.325,6,87.135,6H30.666z"/>
	<linearGradient id="XMLID_12_" gradientUnits="userSpaceOnUse" x1="74.5" y1="5.0483" x2="74.5" y2="124.2407">
		<stop  offset="0" style="stop-color:#FFFFFF"/>
		<stop  offset="1" style="stop-color:#E1E1DF"/>
	</linearGradient>
	<path fill="url(#XMLID_12_)" d="M121,120.113c0,2.584-2.398,2.887-2.398,2.887H30.498c0,0-2.498-0.475-2.498-3.083
		C28,100.1,28,10.861,28,9.694C28,8.374,29.359,7,30.666,7c0.994,0,48.469,0,56.469,0C94.167,7,121,37.326,121,41.504
		C121,46.123,121,104.649,121,120.113z"/>
	<linearGradient id="XMLID_13_" gradientUnits="userSpaceOnUse" x1="74.5" y1="11.0815" x2="74.5" y2="121.4677">
		<stop  offset="0" style="stop-color:#FDFDFD"/>
		<stop  offset="0.2985" style="stop-color:#F3F2F2"/>
		<stop  offset="0.8174" style="stop-color:#D7D6D6"/>
		<stop  offset="1" style="stop-color:#CCCBCA"/>
	</linearGradient>
	<path fill="url(#XMLID_13_)" d="M120,119.282c0,2.481-2,2.718-2,2.718H31c0,0-2-0.163-2-2.249c0-18.015,0-108.874,0-110.057
		C29,8.374,30.317,7,31.583,7c0.964,0,47.859,0,55.61,0C94.006,7,120,37.326,120,41.504C120,46.134,120,104.178,120,119.282z"/>
	<radialGradient id="XMLID_14_" cx="110" cy="32.8696" r="15.596" gradientUnits="userSpaceOnUse">
		<stop  offset="0.2135" style="stop-color:#8E8E8F"/>
		<stop  offset="0.927" style="stop-color:#EEEEEE"/>
	</radialGradient>
	<path fill="url(#XMLID_14_)" d="M120,39c0,7.18-2.82,13-10,13s-16-5.82-16-13s2.82-9,10-9S115,34,120,39z"/>
	<path opacity="0.5" fill="#343434" d="M84.415,6.963c0.547,0,0.947,0.002,3.616,1.193c4.182,1.891,4.103,22.225,4.103,26.673
		l-0.001,0.128c0,0.521,0.399,0.959,0.918,1.002c5.973,0.496,23.318-0.848,26.406,4.026c1.199,1.608,1.365,2.858,1.918,2.858
		S122,42.057,122,41.504c0-0.797-0.257-1.574-0.766-2.428c-0.004-0.009-0.002-0.018-0.006-0.026
		c-0.014-0.028-0.038-0.065-0.053-0.094v-0.001c-2.305-4.699-25.79-30.381-32.354-32.59c-0.006-0.002-0.007-0.008-0.012-0.01
		c-0.007-0.003-0.015-0.002-0.021-0.004c-0.021-0.008-0.049-0.023-0.07-0.031c-0.094-0.029-0.187-0.041-0.279-0.043
		C88.01,6.133,87.578,6,87.135,6C86.627,6,84.473,6.457,84.415,6.963z"/>
	<linearGradient id="XMLID_15_" gradientUnits="userSpaceOnUse" x1="92.0234" y1="9.9473" x2="104.2735" y2="32.9472">
		<stop  offset="0" style="stop-color:#FFFEFE"/>
		<stop  offset="1" style="stop-color:#CFD0D0"/>
	</linearGradient>
	<path fill="url(#XMLID_15_)" d="M121,41.504c-3.375-8.629-27.867-6.542-27.867-6.542C93.003,37.629,94.632,7,87.135,7
		C94.168,7,121,38.814,121,41.504z"/>
	<linearGradient id="XMLID_16_" gradientUnits="userSpaceOnUse" x1="99.5303" y1="5.1812" x2="105.9053" y2="31.9311">
		<stop  offset="0" style="stop-color:#FCFDFD"/>
		<stop  offset="1" style="stop-color:#EEEEEE"/>
	</linearGradient>
	<path fill="url(#XMLID_16_)" d="M121,41.504c-1.5-7.941-26.75-8.066-26.75-8.066C94.225,36.104,94.524,7,87.135,7
		C94.168,7,121,38.814,121,41.504z"/>
	<circle fill="#245194" cx="21" cy="21" r="21"/>
	<path fill="#FFFFFF" d="M1.917,22.661c-0.184,0.021,13.768-2.151,18.911,12.146c3.208-13.267,18.657-13.39,18.528-13.384
		c0.368,0-12.723-3.357-18.617,5.189C14.757,19.067,1.493,22.661,1.917,22.661z"/>
	<path fill="#FFFFFF" d="M12.169,11.364c0,0,8.426-1.813,11.73,7.303c2.07-8.501,11.492-7.777,11.492-7.777
		s-7.664-2.973-11.548,2.617C19.872,8.533,12.166,11.364,12.169,11.364z"/>
	<rect x="35" y="39" opacity="0.15" width="18" height="72"/>
	<rect x="35" y="38" fill="#8C8C8C" width="79" height="1"/>
	<rect x="35" y="47" fill="#8C8C8C" width="79" height="1"/>
	<rect x="35" y="56" fill="#8C8C8C" width="79" height="1"/>
	<rect x="35" y="65" fill="#8C8C8C" width="79" height="1"/>
	<rect x="35" y="74" fill="#8C8C8C" width="79" height="1"/>
	<rect x="35" y="83" fill="#8C8C8C" width="79" height="1"/>
	<rect x="35" y="92" fill="#8C8C8C" width="79" height="1"/>
	<rect x="35" y="101" fill="#8C8C8C" width="79" height="1"/>
	<rect x="35" y="110" fill="#8C8C8C" width="79" height="1"/>
	<rect x="53" y="39" fill="#8C8C8C" width="1" height="71"/>
	<rect x="54" y="39" opacity="0.15" width="60" height="8"/>
	<path opacity="0.2" d="M37.1,90.5v15.1c0.129,4.52,6.632,8.376,17.848,10.609c5.89,1.271,12.685,1.891,19.651,1.891
		c5.713,0,11.199-0.402,16.308-1.199c6.952-1.084,12.597-2.807,16.324-4.98c3.164-1.947,4.799-4.03,4.861-6.293L112.1,90.6
		c0-7.924-19.066-12.6-37.5-12.6S37.1,82.676,37.1,90.5z"/>
	<path opacity="0.2" d="M111.1,90.5c0-6.352-16.34-11.5-36.5-11.5c-20.159,0-36.5,5.148-36.5,11.5c0,0.033,0.007,0.066,0.008,0.1
		H38.1v15h0.008c0.109,4.056,6.885,7.607,17.035,9.628v0.101c5.633,1.121,12.301,1.771,19.456,1.771
		c5.802,0,11.283-0.428,16.153-1.188c6.79-1.059,12.384-2.762,15.975-4.856v-0.101c2.735-1.596,4.313-3.418,4.365-5.355h0.008v-15
		h-0.008C111.093,90.566,111.1,90.533,111.1,90.5z"/>
	<g>
		<linearGradient id="XMLID_17_" gradientUnits="userSpaceOnUse" x1="38" y1="102.7998" x2="111" y2="102.7998">
			<stop  offset="0" style="stop-color:#BB2F2F"/>
			<stop  offset="0.3087" style="stop-color:#D53C3C"/>
			<stop  offset="0.5" style="stop-color:#E04242"/>
			<stop  offset="1" style="stop-color:#BB2F2F"/>
		</linearGradient>
		<path fill="url(#XMLID_17_)" d="M38,89.6v15h0.008c0.171,6.306,16.439,11.4,36.491,11.4c20.055,0,36.322-5.096,36.493-11.4H111
			v-15H38z"/>
		<linearGradient id="XMLID_18_" gradientUnits="userSpaceOnUse" x1="74.5" y1="77.75" x2="74.5" y2="108.2501">
			<stop  offset="0" style="stop-color:#EF3B3B"/>
			<stop  offset="0.3827" style="stop-color:#F14646"/>
			<stop  offset="1" style="stop-color:#F76060"/>
		</linearGradient>
		<ellipse fill="url(#XMLID_18_)" cx="74.5" cy="89.5" rx="36.5" ry="11.5"/>
		<linearGradient id="XMLID_19_" gradientUnits="userSpaceOnUse" x1="54.334" y1="104.8086" x2="90.6669" y2="104.8086">
			<stop  offset="0" style="stop-color:#E1DA1A"/>
			<stop  offset="0.3128" style="stop-color:#D6CF14"/>
			<stop  offset="0.8568" style="stop-color:#BAB305"/>
			<stop  offset="1" style="stop-color:#B2AA00"/>
		</linearGradient>
		<path fill="url(#XMLID_19_)" d="M55.043,99.328v15c5.633,1.121,12.301,1.771,19.456,1.771c5.802,0,11.283-0.428,16.153-1.188
			l0.01-15l-17.828-6.395L55.043,99.328z"/>
		<linearGradient id="XMLID_20_" gradientUnits="userSpaceOnUse" x1="72.8525" y1="107" x2="72.8525" y2="89.5">
			<stop  offset="0" style="stop-color:#F5F2B0"/>
			<stop  offset="0.1374" style="stop-color:#F5EFA5"/>
			<stop  offset="0.377" style="stop-color:#F4E988"/>
			<stop  offset="0.6886" style="stop-color:#F3DE5A"/>
			<stop  offset="1" style="stop-color:#F2D125"/>
		</linearGradient>
		<path fill="url(#XMLID_20_)" d="M74.499,101c5.806,0,11.29-0.429,16.163-1.188L74.5,89.5l-19.457,9.729
			C60.677,100.35,67.345,101,74.499,101z"/>
		<linearGradient id="XMLID_21_" gradientUnits="userSpaceOnUse" x1="88.501" y1="104.9873" x2="107.3339" y2="104.9873">
			<stop  offset="0" style="stop-color:#1773A6"/>
			<stop  offset="1" style="stop-color:#1773A6"/>
		</linearGradient>
		<path fill="url(#XMLID_21_)" d="M90.662,99.912l-0.01,15c6.79-1.059,12.384-2.762,15.975-4.856V95.063l-11.626,1.121
			L90.662,99.912z"/>
		<linearGradient id="XMLID_22_" gradientUnits="userSpaceOnUse" x1="104.665" y1="102.4395" x2="63.9151" y2="72.9395">
			<stop  offset="0" style="stop-color:#85B6D1"/>
			<stop  offset="0.1707" style="stop-color:#7AB1D0"/>
			<stop  offset="0.4684" style="stop-color:#5EA5CD"/>
			<stop  offset="0.8553" style="stop-color:#2F92C9"/>
			<stop  offset="1" style="stop-color:#1C8AC7"/>
		</linearGradient>
		<path fill="url(#XMLID_22_)" d="M90.662,99.812c6.782-1.058,12.374-2.758,15.965-4.85v-0.001L74.5,89.5L90.662,99.812z"/>
	</g>
</svg>
