<?xml version="1.0" encoding="utf-8"?>
<!DOCTYPE svg PUBLIC "-//W3C//DTD SVG 1.1//EN" "http://www.w3.org/Graphics/SVG/1.1/DTD/svg11.dtd" [
	<!ENTITY ns_svg "http://www.w3.org/2000/svg">
	<!ENTITY ns_xlink "http://www.w3.org/1999/xlink">
]>
<svg  version="1.1" xmlns="&ns_svg;" xmlns:xlink="&ns_xlink;" width="128" height="128" viewBox="0 0 128 128"
	 overflow="visible" enable-background="new 0 0 128 128" xml:space="preserve">
	<path opacity="0.2" d="M30.666,7C28.816,7,27,8.83,27,10.694c0,106.39,0,106.39,0,109.807c0,3.917,4,4.499,4,4.499h87
		c0,0,4-0.268,4-4.018s0-78.479,0-78.479C122,37.306,94.325,7,87.135,7H30.666z"/>
	<path opacity="0.2" d="M30.666,8C28.816,8,27,9.83,27,11.694c0,106.39,0,106.39,0,109.807c0,3.917,5,4.499,5,4.499h85
		c0,0,5-0.268,5-4.018s0-78.479,0-78.479C122,38.306,94.325,8,87.135,8H30.666z"/>
	<path opacity="0.6" fill="#262626" d="M30.666,6C28.816,6,27,7.83,27,9.694c0,106.39,0,106.39,0,109.807c0,3.917,3,4.499,3,4.499
		h89c0,0,3-0.268,3-4.018s0-78.479,0-78.479C122,36.306,94.325,6,87.135,6H30.666z"/>
	<linearGradient id="XMLID_6_" gradientUnits="userSpaceOnUse" x1="74.5" y1="5.0483" x2="74.5" y2="124.2407">
		<stop  offset="0" style="stop-color:#FFFFFF"/>
		<stop  offset="1" style="stop-color:#E1E1DF"/>
	</linearGradient>
	<path fill="url(#XMLID_6_)" d="M121,120.113c0,2.584-2.398,2.887-2.398,2.887H30.498c0,0-2.498-0.475-2.498-3.083
		C28,100.1,28,10.861,28,9.694C28,8.374,29.359,7,30.666,7c0.994,0,48.469,0,56.469,0C94.167,7,121,37.326,121,41.504
		C121,46.123,121,104.649,121,120.113z"/>
	<linearGradient id="XMLID_7_" gradientUnits="userSpaceOnUse" x1="74.5" y1="11.0815" x2="74.5" y2="121.4677">
		<stop  offset="0" style="stop-color:#FDFDFD"/>
		<stop  offset="0.2985" style="stop-color:#F3F2F2"/>
		<stop  offset="0.8174" style="stop-color:#D7D6D6"/>
		<stop  offset="1" style="stop-color:#CCCBCA"/>
	</linearGradient>
	<path fill="url(#XMLID_7_)" d="M120,119.282c0,2.481-2,2.718-2,2.718H31c0,0-2-0.163-2-2.249c0-18.015,0-108.874,0-110.057
		C29,8.374,30.317,7,31.583,7c0.964,0,47.859,0,55.61,0C94.006,7,120,37.326,120,41.504C120,46.134,120,104.178,120,119.282z"/>
	<radialGradient id="XMLID_8_" cx="110" cy="32.8696" r="15.596" gradientUnits="userSpaceOnUse">
		<stop  offset="0.2135" style="stop-color:#8E8E8F"/>
		<stop  offset="0.927" style="stop-color:#EEEEEE"/>
	</radialGradient>
	<path fill="url(#XMLID_8_)" d="M120,39c0,7.18-2.82,13-10,13s-16-5.82-16-13s2.82-9,10-9S115,34,120,39z"/>
	<path opacity="0.5" fill="#343434" d="M84.415,6.963c0.547,0,0.947,0.002,3.616,1.193c4.182,1.891,4.103,22.225,4.103,26.673
		l-0.001,0.128c0,0.521,0.399,0.959,0.918,1.002c5.973,0.496,23.318-0.848,26.406,4.026c1.199,1.608,1.365,2.858,1.918,2.858
		S122,42.057,122,41.504c0-0.797-0.257-1.574-0.766-2.428c-0.004-0.009-0.002-0.018-0.006-0.026
		c-0.014-0.028-0.038-0.065-0.053-0.094v-0.001c-2.305-4.699-25.79-30.381-32.354-32.59c-0.006-0.002-0.007-0.008-0.012-0.01
		c-0.007-0.003-0.015-0.002-0.021-0.004c-0.021-0.008-0.049-0.023-0.07-0.031c-0.094-0.029-0.187-0.041-0.279-0.043
		C88.01,6.133,87.578,6,87.135,6C86.627,6,84.473,6.457,84.415,6.963z"/>
	<linearGradient id="XMLID_9_" gradientUnits="userSpaceOnUse" x1="92.0234" y1="9.9473" x2="104.2735" y2="32.9472">
		<stop  offset="0" style="stop-color:#FFFEFE"/>
		<stop  offset="1" style="stop-color:#CFD0D0"/>
	</linearGradient>
	<path fill="url(#XMLID_9_)" d="M121,41.504c-3.375-8.629-27.867-6.542-27.867-6.542C93.003,37.629,94.632,7,87.135,7
		C94.168,7,121,38.814,121,41.504z"/>
	<linearGradient id="XMLID_10_" gradientUnits="userSpaceOnUse" x1="99.5303" y1="5.1816" x2="105.9051" y2="31.931">
		<stop  offset="0" style="stop-color:#FCFDFD"/>
		<stop  offset="1" style="stop-color:#EEEEEE"/>
	</linearGradient>
	<path fill="url(#XMLID_10_)" d="M121,41.504c-1.5-7.941-26.75-8.066-26.75-8.066C94.225,36.104,94.524,7,87.135,7
		C94.168,7,121,38.814,121,41.504z"/>
	<circle fill="#245194" cx="21" cy="21" r="21"/>
	<path fill="#FFFFFF" d="M1.917,22.661c-0.184,0.021,13.768-2.151,18.911,12.146c3.208-13.267,18.657-13.39,18.528-13.384
		c0.368,0-12.723-3.357-18.617,5.189C14.757,19.067,1.493,22.661,1.917,22.661z"/>
	<path fill="#FFFFFF" d="M12.169,11.364c0,0,8.426-1.813,11.73,7.303c2.07-8.501,11.492-7.777,11.492-7.777
		s-7.664-2.973-11.548,2.617C19.872,8.533,12.166,11.364,12.169,11.364z"/>
	<circle cx="74" cy="43" r="5"/>
	<path opacity="0.2" d="M68,44c0,2.546,1.662,4.717,4,5.564c0,1.228,0,22.772,0,23.944c-1.779,0.794-3,2.504-3,4.492
		c0,1.72,0.943,3.272,2.374,4.178C67.979,93.797,50.57,97.441,42,98.529C42,97.781,42,97,42,97c0-0.553-0.447-1-1-1h-8
		c-0.553,0-1,0.447-1,1v8c0,0.553,0.447,1,1,1h8c0.553,0,1-0.447,1-1c0,0,0-1.457,0-2.406c7.492-0.865,22.771-3.745,30-12.979
		c0,4.501,0,15.779,0,16.82c-2.338,0.848-4,3.019-4,5.564c0,3.309,2.691,6,6,6s6-2.691,6-6c0-2.546-1.662-4.717-4-5.564
		c0-1.228,0-22.771,0-23.943c1.779-0.794,3-2.504,3-4.492c0-1.745-0.923-3.273-2.363-4.176C80.128,62.029,98.146,57.909,107,56.592
		c0,0.697,0,1.408,0,1.408c0,0.552,0.447,1,1,1h8c0.553,0,1-0.448,1-1v-8c0-0.552-0.447-1-1-1h-8c-0.553,0-1,0.448-1,1
		c0,0,0,1.556,0,2.519c-7.732,1.055-23.602,4.347-31,13.898c0-4.522,0-15.813,0-16.853c2.338-0.847,4-3.018,4-5.564
		c0-3.309-2.691-6-6-6S68,40.691,68,44z"/>
	<circle cx="74" cy="111" r="5"/>
	<g>
		<path fill="#808080" d="M111.941,52.002C110.351,52.096,73,54.565,73,77c0,20.531-35.674,21.988-36.034,22l0.067,2
			C38.584,100.947,75,99.459,75,77c0-20.556,36.688-22.979,37.06-23.002l0.109-0.006l0.106-0.03L111.941,52.002z"/>
	</g>
	<g>
		<rect x="73" y="43" width="2" height="66"/>
	</g>
	<path d="M70,77c0,2.205,1.795,4,4,4s4-1.795,4-4s-1.795-4-4-4S70,74.795,70,77z"/>
	<circle fill="#F96C00" cx="74" cy="77" r="3"/>
	<rect x="108" y="49" width="8" height="8"/>
	<rect x="109" y="50" fill="#FFFFFF" width="6" height="6"/>
	<rect x="33" y="96" width="8" height="8"/>
	<rect x="34" y="97" fill="#FFFFFF" width="6" height="6"/>
</svg>
