<?xml version="1.0" encoding="utf-8"?>
<!DOCTYPE svg PUBLIC "-//W3C//DTD SVG 1.1//EN" "http://www.w3.org/Graphics/SVG/1.1/DTD/svg11.dtd" [
	<!ENTITY ns_svg "http://www.w3.org/2000/svg">
	<!ENTITY ns_xlink "http://www.w3.org/1999/xlink">
]>
<svg  version="1.1" xmlns="&ns_svg;" xmlns:xlink="&ns_xlink;" width="128" height="128" viewBox="0 0 128 128"
	 overflow="visible" enable-background="new 0 0 128 128" xml:space="preserve">
	<path opacity="0.2" d="M30.666,7C28.816,7,27,8.83,27,10.694c0,106.39,0,106.39,0,109.807c0,3.917,4,4.499,4,4.499h87
		c0,0,4-0.268,4-4.018s0-78.479,0-78.479C122,37.306,94.325,7,87.135,7H30.666z"/>
	<path opacity="0.2" d="M30.666,8C28.816,8,27,9.83,27,11.694c0,106.39,0,106.39,0,109.807c0,3.917,5,4.499,5,4.499h85
		c0,0,5-0.268,5-4.018s0-78.479,0-78.479C122,38.306,94.325,8,87.135,8H30.666z"/>
	<path opacity="0.6" fill="#262626" d="M30.666,6C28.816,6,27,7.83,27,9.694c0,106.39,0,106.39,0,109.807c0,3.917,3,4.499,3,4.499
		h89c0,0,3-0.268,3-4.018s0-78.479,0-78.479C122,36.306,94.325,6,87.135,6H30.666z"/>
	<linearGradient id="XMLID_6_" gradientUnits="userSpaceOnUse" x1="74.5" y1="5.0479" x2="74.5" y2="124.2402">
		<stop  offset="0" style="stop-color:#FFFFFF"/>
		<stop  offset="1" style="stop-color:#E1E1DF"/>
	</linearGradient>
	<path fill="url(#XMLID_6_)" d="M121,120.113c0,2.584-2.398,2.887-2.398,2.887H30.498c0,0-2.498-0.475-2.498-3.083
		C28,100.1,28,10.861,28,9.694C28,8.374,29.359,7,30.666,7c0.994,0,48.469,0,56.469,0C94.167,7,121,37.326,121,41.504
		C121,46.123,121,104.649,121,120.113z"/>
	<linearGradient id="XMLID_7_" gradientUnits="userSpaceOnUse" x1="74.5" y1="11.0811" x2="74.5" y2="121.4673">
		<stop  offset="0" style="stop-color:#FDFDFD"/>
		<stop  offset="0.2985" style="stop-color:#F3F2F2"/>
		<stop  offset="0.8174" style="stop-color:#D7D6D6"/>
		<stop  offset="1" style="stop-color:#CCCBCA"/>
	</linearGradient>
	<path fill="url(#XMLID_7_)" d="M120,119.282c0,2.481-2,2.718-2,2.718H31c0,0-2-0.163-2-2.249c0-18.015,0-108.874,0-110.057
		C29,8.374,30.317,7,31.583,7c0.964,0,47.859,0,55.61,0C94.006,7,120,37.326,120,41.504C120,46.134,120,104.178,120,119.282z"/>
	<radialGradient id="XMLID_8_" cx="110" cy="32.8691" r="15.5963" gradientUnits="userSpaceOnUse">
		<stop  offset="0.2135" style="stop-color:#8E8E8F"/>
		<stop  offset="0.927" style="stop-color:#EEEEEE"/>
	</radialGradient>
	<path fill="url(#XMLID_8_)" d="M120,39c0,7.18-2.82,13-10,13s-16-5.82-16-13s2.82-9,10-9S115,34,120,39z"/>
	<g>
		<path fill="#999999" d="M38,29v26h73V29H38z M110,29.9c0,0.94,0,23.159,0,24.1c-0.979,0-70.021,0-71,0c0-1.698,0-22.401,0-24.1
			C39.989,29.9,109.011,29.9,110,29.9z"/>
	</g>
	<g>
		<path fill="#999999" d="M38,60v53.498h41V60H38z M78,60.9c0,0.94,0,50.159,0,51.1c-0.979,0-38.021,0-39,0c0-0.94,0-50.159,0-51.1
			C39.979,60.9,77.021,60.9,78,60.9z"/>
	</g>
	<g>
		<path fill="#999999" d="M84,60v53h27V60H84z M110,60.9c0,0.94,0,50.159,0,51.1c-0.979,0-24.021,0-25,0c0-0.94,0-50.159,0-51.1
			C85.979,60.9,109.021,60.9,110,60.9z"/>
	</g>
	<path opacity="0.5" fill="#343434" d="M84.415,6.963c0.547,0,0.947,0.002,3.616,1.193c4.182,1.891,4.103,22.225,4.103,26.673
		l-0.001,0.128c0,0.521,0.399,0.959,0.918,1.002c5.973,0.496,23.318-0.848,26.406,4.026c1.199,1.608,1.365,2.858,1.918,2.858
		S122,42.057,122,41.504c0-0.797-0.257-1.574-0.766-2.428c-0.004-0.009-0.002-0.018-0.006-0.026
		c-0.014-0.028-0.038-0.065-0.053-0.094v-0.001c-2.305-4.699-25.79-30.381-32.354-32.59c-0.006-0.002-0.007-0.008-0.012-0.01
		c-0.007-0.003-0.015-0.002-0.021-0.004c-0.021-0.008-0.049-0.023-0.07-0.031c-0.094-0.029-0.187-0.041-0.279-0.043
		C88.01,6.133,87.578,6,87.135,6C86.627,6,84.473,6.457,84.415,6.963z"/>
	<linearGradient id="XMLID_9_" gradientUnits="userSpaceOnUse" x1="92.0234" y1="9.9473" x2="104.2735" y2="32.9472">
		<stop  offset="0" style="stop-color:#FFFEFE"/>
		<stop  offset="1" style="stop-color:#CFD0D0"/>
	</linearGradient>
	<path fill="url(#XMLID_9_)" d="M121,41.504c-3.375-8.629-27.867-6.542-27.867-6.542C93.003,37.629,94.632,7,87.135,7
		C94.168,7,121,38.814,121,41.504z"/>
	<linearGradient id="XMLID_10_" gradientUnits="userSpaceOnUse" x1="99.5303" y1="5.1816" x2="105.9051" y2="31.931">
		<stop  offset="0" style="stop-color:#FCFDFD"/>
		<stop  offset="1" style="stop-color:#EEEEEE"/>
	</linearGradient>
	<path fill="url(#XMLID_10_)" d="M121,41.504c-1.5-7.941-26.75-8.066-26.75-8.066C94.225,36.104,94.524,7,87.135,7
		C94.168,7,121,38.814,121,41.504z"/>
	<circle fill="#245194" cx="21" cy="21" r="21"/>
	<path fill="#FFFFFF" d="M1.917,22.661c-0.184,0.021,13.768-2.151,18.911,12.146c3.208-13.267,18.657-13.39,18.528-13.384
		c0.368,0-12.723-3.357-18.617,5.189C14.757,19.067,1.493,22.661,1.917,22.661z"/>
	<path fill="#FFFFFF" d="M12.169,11.364c0,0,8.426-1.813,11.73,7.303c2.07-8.501,11.492-7.777,11.492-7.777
		s-7.664-2.973-11.548,2.617C19.872,8.533,12.166,11.364,12.169,11.364z"/>
	<path opacity="0.2" d="M33,55c-1.103,0-2,0.897-2,2v60.903c0,1.103,0.897,2,2,2h59.933c1.103,0,2-0.897,2-2v-11.801
		c0-1.103-0.897-2-2-2c0,0-44.017,0-45.933,0C47,102.185,47,57,47,57c0-1.103-0.897-2-2-2H33z"/>
	<path opacity="0.2" d="M33,56c-0.553,0-1,0.447-1,1v60.903c0,0.553,0.447,1,1,1h59.933c0.552,0,1-0.447,1-1v-11.801
		c0-0.553-0.448-1-1-1c0,0-45.016,0-46.933,0C46,103.184,46,57,46,57c0-0.553-0.447-1-1-1H33z"/>
	<path fill="#AEFA62" d="M33,55c-0.553,0-1,0.447-1,1v60.903c0,0.553,0.447,1,1,1h59.933c0.552,0,1-0.447,1-1v-11.801
		c0-0.553-0.448-1-1-1c0,0-45.016,0-46.933,0C46,102.184,46,56,46,56c0-0.553-0.447-1-1-1H33z"/>
	<path fill="#7CF653" d="M33,56v60.903h59.933v-11.801c0,0-38.454,0-47.933,0C45,95.573,45,56,45,56H33z"/>
	<polygon fill="#67E03F" points="34,115.903 34,56 33,56 33,116.903 92.933,116.903 92.933,115.903 	"/>
	<path fill="#6BE841" d="M45,105.103C45,95.573,45,56,45,56H34v1h10c0,0,0,39.573,0,49.103c9.479,0,47.933,0,47.933,0v9.801h1
		v-10.801C92.933,105.103,54.479,105.103,45,105.103z"/>
	<rect x="41" y="61" fill="#3AC221" width="4" height="1"/>
	<rect x="41" y="64" fill="#3AC221" width="4" height="1"/>
	<rect x="39" y="67" fill="#3AC221" width="6" height="1"/>
	<rect x="41" y="70" fill="#3AC221" width="4" height="1"/>
	<rect x="41" y="73" fill="#3AC221" width="4" height="1"/>
	<rect x="41" y="76" fill="#3AC221" width="4" height="1"/>
	<rect x="39" y="79" fill="#3AC221" width="6" height="1"/>
	<rect x="41" y="82" fill="#3AC221" width="4" height="1"/>
	<rect x="41" y="85" fill="#3AC221" width="4" height="1"/>
	<rect x="41" y="88" fill="#3AC221" width="4" height="1"/>
	<rect x="39" y="91" fill="#3AC221" width="6" height="1"/>
	<rect x="41" y="94" fill="#3AC221" width="4" height="1"/>
	<rect x="41" y="97" fill="#3AC221" width="4" height="1"/>
	<rect x="41" y="100" fill="#3AC221" width="4" height="1"/>
	<rect x="39" y="103" fill="#3AC221" width="6" height="1"/>
	<rect x="46" y="105" fill="#3AC221" width="1" height="6"/>
	<rect x="49" y="105" fill="#3AC221" width="1" height="4"/>
	<rect x="52" y="105" fill="#3AC221" width="1" height="4"/>
	<rect x="55" y="105" fill="#3AC221" width="1" height="4"/>
	<rect x="58" y="105" fill="#3AC221" width="1" height="6"/>
	<rect x="61" y="105" fill="#3AC221" width="1" height="4"/>
	<rect x="64" y="105" fill="#3AC221" width="1" height="4"/>
	<rect x="67" y="105" fill="#3AC221" width="1" height="4"/>
	<rect x="70" y="105" fill="#3AC221" width="1" height="6"/>
	<rect x="73" y="105" fill="#3AC221" width="1" height="4"/>
	<rect x="76" y="105" fill="#3AC221" width="1" height="4"/>
	<rect x="79" y="105" fill="#3AC221" width="1" height="4"/>
	<rect x="82" y="105" fill="#3AC221" width="1" height="6"/>
	<rect x="85" y="105" fill="#3AC221" width="1" height="4"/>
	<rect x="88" y="105" fill="#3AC221" width="1" height="4"/>
</svg>
