<?xml version="1.0" encoding="utf-8"?>
<!DOCTYPE svg PUBLIC "-//W3C//DTD SVG 1.1//EN" "http://www.w3.org/Graphics/SVG/1.1/DTD/svg11.dtd" [
	<!ENTITY ns_svg "http://www.w3.org/2000/svg">
	<!ENTITY ns_xlink "http://www.w3.org/1999/xlink">
]>
<svg  version="1.1" xmlns="&ns_svg;" xmlns:xlink="&ns_xlink;" width="128" height="128" viewBox="0 0 128 128"
	 overflow="visible" enable-background="new 0 0 128 128" xml:space="preserve">
	<path opacity="0.2" d="M30.666,7C28.816,7,27,8.83,27,10.694c0,106.39,0,106.39,0,109.807c0,3.917,4,4.499,4,4.499h87
		c0,0,4-0.268,4-4.018s0-78.479,0-78.479C122,37.306,94.325,7,87.135,7H30.666z"/>
	<path opacity="0.2" d="M30.666,8C28.816,8,27,9.83,27,11.694c0,106.39,0,106.39,0,109.807c0,3.917,5,4.499,5,4.499h85
		c0,0,5-0.268,5-4.018s0-78.479,0-78.479C122,38.306,94.325,8,87.135,8H30.666z"/>
	<path opacity="0.6" fill="#262626" d="M30.666,6C28.816,6,27,7.83,27,9.694c0,106.39,0,106.39,0,109.807c0,3.917,3,4.499,3,4.499
		h89c0,0,3-0.268,3-4.018s0-78.479,0-78.479C122,36.306,94.325,6,87.135,6H30.666z"/>
	<linearGradient id="XMLID_8_" gradientUnits="userSpaceOnUse" x1="74.5" y1="5.0479" x2="74.5" y2="124.2402">
		<stop  offset="0" style="stop-color:#FFFFFF"/>
		<stop  offset="1" style="stop-color:#E1E1DF"/>
	</linearGradient>
	<path fill="url(#XMLID_8_)" d="M121,120.113c0,2.584-2.398,2.887-2.398,2.887H30.498c0,0-2.498-0.475-2.498-3.083
		C28,100.1,28,10.861,28,9.694C28,8.374,29.359,7,30.666,7c0.994,0,48.469,0,56.469,0C94.167,7,121,37.326,121,41.504
		C121,46.123,121,104.649,121,120.113z"/>
	<linearGradient id="XMLID_9_" gradientUnits="userSpaceOnUse" x1="74.5" y1="11.0811" x2="74.5" y2="121.4673">
		<stop  offset="0" style="stop-color:#FDFDFD"/>
		<stop  offset="0.2985" style="stop-color:#F3F2F2"/>
		<stop  offset="0.8174" style="stop-color:#D7D6D6"/>
		<stop  offset="1" style="stop-color:#CCCBCA"/>
	</linearGradient>
	<path fill="url(#XMLID_9_)" d="M120,119.282c0,2.481-2,2.718-2,2.718H31c0,0-2-0.163-2-2.249c0-18.015,0-108.874,0-110.057
		C29,8.374,30.317,7,31.583,7c0.964,0,47.859,0,55.61,0C94.006,7,120,37.326,120,41.504C120,46.134,120,104.178,120,119.282z"/>
	<radialGradient id="XMLID_10_" cx="110" cy="32.8691" r="15.5963" gradientUnits="userSpaceOnUse">
		<stop  offset="0.2135" style="stop-color:#8E8E8F"/>
		<stop  offset="0.927" style="stop-color:#EEEEEE"/>
	</radialGradient>
	<path fill="url(#XMLID_10_)" d="M120,39c0,7.18-2.82,13-10,13s-16-5.82-16-13s2.82-9,10-9S115,34,120,39z"/>
	<path opacity="0.5" fill="#343434" d="M84.415,6.963c0.547,0,0.947,0.002,3.616,1.193c4.182,1.891,4.103,22.225,4.103,26.673
		l-0.001,0.128c0,0.521,0.399,0.959,0.918,1.002c5.973,0.496,23.318-0.848,26.406,4.026c1.199,1.608,1.365,2.858,1.918,2.858
		S122,42.057,122,41.504c0-0.797-0.257-1.574-0.766-2.428c-0.004-0.009-0.002-0.018-0.006-0.026
		c-0.014-0.028-0.038-0.065-0.053-0.094v-0.001c-2.305-4.699-25.79-30.381-32.354-32.59c-0.006-0.002-0.007-0.008-0.012-0.01
		c-0.007-0.003-0.015-0.002-0.021-0.004c-0.021-0.008-0.049-0.023-0.07-0.031c-0.094-0.029-0.187-0.041-0.279-0.043
		C88.01,6.133,87.578,6,87.135,6C86.627,6,84.473,6.457,84.415,6.963z"/>
	<linearGradient id="XMLID_11_" gradientUnits="userSpaceOnUse" x1="92.0234" y1="9.9473" x2="104.2735" y2="32.9472">
		<stop  offset="0" style="stop-color:#FFFEFE"/>
		<stop  offset="1" style="stop-color:#CFD0D0"/>
	</linearGradient>
	<path fill="url(#XMLID_11_)" d="M121,41.504c-3.375-8.629-27.867-6.542-27.867-6.542C93.003,37.629,94.632,7,87.135,7
		C94.168,7,121,38.814,121,41.504z"/>
	<linearGradient id="XMLID_12_" gradientUnits="userSpaceOnUse" x1="99.5303" y1="5.1807" x2="105.9053" y2="31.9306">
		<stop  offset="0" style="stop-color:#FCFDFD"/>
		<stop  offset="1" style="stop-color:#EEEEEE"/>
	</linearGradient>
	<path fill="url(#XMLID_12_)" d="M121,41.504c-1.5-7.941-26.75-8.066-26.75-8.066C94.225,36.104,94.524,7,87.135,7
		C94.168,7,121,38.814,121,41.504z"/>
	<circle fill="#245194" cx="21" cy="21" r="21"/>
	<path fill="#FFFFFF" d="M1.917,22.661c-0.184,0.021,13.768-2.151,18.911,12.146c3.208-13.267,18.657-13.39,18.528-13.384
		c0.368,0-12.723-3.357-18.617,5.189C14.757,19.067,1.493,22.661,1.917,22.661z"/>
	<path fill="#FFFFFF" d="M12.169,11.364c0,0,8.426-1.813,11.73,7.303c2.07-8.501,11.492-7.777,11.492-7.777
		s-7.664-2.973-11.548,2.617C19.872,8.533,12.166,11.364,12.169,11.364z"/>
	<linearGradient id="XMLID_13_" gradientUnits="userSpaceOnUse" x1="52.6191" y1="44.1445" x2="56.6192" y2="123.8945">
		<stop  offset="0" style="stop-color:#B5B5B4"/>
		<stop  offset="1" style="stop-color:#80807F"/>
	</linearGradient>
	<path fill="url(#XMLID_13_)" d="M49.601,55.25c-0.38,0.115-0.655,0.444-0.703,0.838l-0.454,3.794
		c-0.043,0.362,0.114,0.719,0.41,0.932c0.296,0.212,0.684,0.247,1.013,0.091c1.058-0.504,2.702-1.104,4.532-1.104
		c1.616,0,2.436,0.428,2.436,1.271c0,2.254-2.296,2.695-6.261,2.695c-0.486,0-0.902,0.35-0.985,0.829l-0.617,3.564
		c-0.051,0.291,0.03,0.589,0.221,0.814c0.189,0.227,0.47,0.356,0.765,0.356c3.214,0,5.354,0.343,5.354,2.016
		c0,2.652-3.467,2.729-3.862,2.729c-2.013,0-3.334-0.289-5.051-1.104c-0.273-0.13-0.59-0.129-0.863,0.003
		c-0.271,0.131-0.471,0.378-0.539,0.673l-0.811,3.47c-0.107,0.458,0.119,0.928,0.544,1.13c1.941,0.926,4.323,1.395,7.077,1.395
		c5.096,0,10.238-2.605,10.238-8.425c0-2.377-1.084-3.764-2.367-4.639c2.475-1.175,3.892-3.229,3.892-5.928
		c0-3.897-3.142-6.416-8.004-6.416C53.804,54.234,51.854,54.566,49.601,55.25z"/>
	<path d="M45.968,72.875c1.913,0.908,3.405,1.2,5.479,1.2c2.174,0,4.862-1.005,4.862-3.729c0-3.016-4.148-3.016-6.354-3.016
		l0.617-3.564c2.754,0,7.261,0,7.261-3.695c0-1.687-1.588-2.271-3.436-2.271c-1.85,0-3.6,0.552-4.962,1.2l0.454-3.794
		c1.815-0.551,3.761-0.973,5.673-0.973c3.471,0,7.004,1.524,7.004,5.416c0,3.306-2.303,5.088-5.319,5.735v0.099
		c2.337,0.843,3.795,2.139,3.795,4.732c0,5.155-4.571,7.425-9.238,7.425c-2.237,0-4.605-0.324-6.647-1.297L45.968,72.875z"/>
	<linearGradient id="XMLID_14_" gradientUnits="userSpaceOnUse" x1="71.3037" y1="43.208" x2="75.3037" y2="122.9579">
		<stop  offset="0" style="stop-color:#ADADAC"/>
		<stop  offset="1" style="stop-color:#858584"/>
	</linearGradient>
	<path fill="url(#XMLID_14_)" d="M76.919,58.102c-0.393,0-0.749,0.229-0.911,0.588c0,0-14.35,31.723-15.74,34.798
		c-1.52-2.404-6.97-11.021-6.97-11.021C53.115,82.176,52.796,82,52.453,82h-11.4c-0.553,0-1,0.447-1,1v8c0,0.553,0.447,1,1,1
		c0,0,5.509,0,6.443,0c0.563,0.892,13.244,20.944,13.244,20.944c0.197,0.312,0.549,0.489,0.915,0.464
		c0.367-0.026,0.69-0.251,0.842-0.586c0,0,19.711-43.575,20.229-44.721c1.218,0,22.023,0,22.023,0c0.553,0,1-0.447,1-1v-8
		c0-0.553-0.447-1-1-1H76.919z"/>
	<path d="M76.919,58.102c0,0-12.243,27.066-16.505,36.488C57.256,89.594,52.453,82,52.453,82h-11.4v8c0,0,4.445,0,6.994,0
		c1.867,2.953,13.539,21.41,13.539,21.41s18.605-41.131,20.495-45.309c4.16,0,22.669,0,22.669,0v-8H76.919z"/>
</svg>
